<svg width="295" height="295" viewBox="0 0 295 295" fill="none" xmlns="http://www.w3.org/2000/svg">
<path d="M223.507 132.684C223.106 133.005 222.64 133.234 222.141 133.355C220.771 133.66 217.125 133.505 216.508 135.18C216.311 135.682 216.004 136.134 215.609 136.503C215.215 136.871 214.743 137.147 214.228 137.309C214.228 137.309 211.338 137.464 211.184 138.081C211.03 138.698 209.969 139.755 209.969 139.755H259.733C259.733 139.755 261.408 137.17 258.669 134.74C256.273 132.61 251.894 135.836 251.338 133.197" stroke="#263238" stroke-linecap="round" stroke-linejoin="round"/>
<path d="M250.887 129.323C250.331 127.321 249.162 124.62 246.79 123.617C242.831 121.943 239.487 124.227 238.572 126.507C237.658 128.787 237.052 130.311 233.557 128.332C230.061 126.353 226.998 126.507 225.949 129.103C225.646 129.855 225.267 130.574 224.818 131.248" stroke="#263238" stroke-linecap="round" stroke-linejoin="round"/>
<path d="M138.996 159.211H156.276C156.276 159.211 157.287 157.668 155.632 156.175C153.977 154.682 150.751 157.464 151.214 154.335C151.214 154.335 150.829 150.477 148.452 149.458C147.84 149.178 147.166 149.063 146.496 149.124C145.826 149.184 145.184 149.419 144.633 149.805" stroke="#263238" stroke-linecap="round" stroke-linejoin="round"/>
<path d="M143.484 151.206C142.932 152.587 142.562 153.521 140.447 152.309C138.333 151.098 136.489 151.206 135.845 152.772C135.201 154.339 134.371 155.164 133.53 155.346C132.689 155.527 130.494 155.438 130.123 156.453C130.003 156.757 129.817 157.03 129.578 157.253C129.339 157.476 129.054 157.642 128.742 157.741C128.742 157.741 126.995 157.83 126.902 158.201C126.718 158.578 126.468 158.921 126.165 159.211H136.277" stroke="#263238" stroke-linecap="round" stroke-linejoin="round"/>
<path d="M225.493 159.211H233.653C233.653 159.211 234.664 157.668 233.009 156.175C231.354 154.682 228.132 157.464 228.591 154.335C228.591 154.335 228.225 150.477 225.829 149.458C223.433 148.44 221.415 149.844 220.86 151.206C220.304 152.568 219.942 153.521 217.824 152.309C215.705 151.098 213.865 151.206 213.225 152.772C212.584 154.339 211.751 155.164 210.91 155.346C210.069 155.527 207.874 155.438 207.507 156.453C207.386 156.756 207.2 157.029 206.961 157.252C206.722 157.475 206.437 157.642 206.126 157.741C206.126 157.741 204.378 157.83 204.286 158.201C204.102 158.578 203.852 158.921 203.549 159.211H222.77" stroke="#263238" stroke-linecap="round" stroke-linejoin="round"/>
<g opacity="0.1">
<path opacity="0.1" d="M108.201 184.701C109.721 185.002 113.097 184.188 113.097 184.188C113.097 184.188 111.885 182.124 111.793 182.005C110.708 180.608 107.792 178.532 105.936 179.227C105.631 179.348 105.354 179.532 105.125 179.767C104.895 180.002 104.718 180.283 104.603 180.591C104.489 180.899 104.441 181.228 104.462 181.556C104.483 181.884 104.572 182.203 104.725 182.495C105.33 183.752 106.908 184.443 108.201 184.701Z" fill="black"/>
<path opacity="0.1" d="M111.514 194.281C112.996 194.177 115.832 192.641 116.059 192.518C116.936 194.141 117.919 195.705 119.003 197.198C119.628 198.069 120.288 198.93 120.959 199.782C120.592 199.439 120.264 199.134 120.214 199.096C118.802 198.039 115.446 196.823 113.833 197.965C113.571 198.163 113.353 198.414 113.193 198.701C113.034 198.989 112.937 199.306 112.908 199.634C112.879 199.961 112.92 200.291 113.027 200.601C113.133 200.912 113.304 201.197 113.528 201.437C114.447 202.487 116.148 202.738 117.464 202.645C118.779 202.552 121.244 201.287 121.885 200.948C122.147 201.272 122.402 201.6 122.656 201.924C123.914 203.467 125.176 205.01 126.368 206.576C126.788 207.124 127.178 207.68 127.575 208.231C127.251 207.927 126.977 207.672 126.931 207.637C125.515 206.576 122.163 205.361 120.55 206.507C120.286 206.704 120.068 206.954 119.907 207.242C119.747 207.529 119.65 207.847 119.621 208.175C119.592 208.503 119.633 208.833 119.741 209.144C119.848 209.455 120.02 209.739 120.245 209.979C121.163 211.032 122.865 211.279 124.18 211.187C125.496 211.094 127.722 209.952 128.486 209.551C128.872 210.13 129.258 210.708 129.612 211.287C129.844 211.673 130.091 212.059 130.299 212.471L130.94 213.679C131.325 214.451 131.711 215.268 132.062 216.04C132.309 216.576 132.537 217.089 132.764 217.61C132.352 217.059 131.526 215.998 131.445 215.917C130.21 214.659 127.078 212.95 125.307 213.833C125.018 213.989 124.764 214.203 124.563 214.463C124.362 214.723 124.218 215.022 124.14 215.341C124.062 215.66 124.052 215.992 124.111 216.315C124.17 216.638 124.296 216.946 124.481 217.217C125.23 218.397 126.873 218.899 128.189 219.007C129.636 219.127 132.56 218.093 132.923 217.961C133.308 218.822 133.656 219.659 133.98 220.458C134.224 221.044 134.452 221.611 134.663 222.159L135.866 221.897C135.609 221.292 135.34 220.659 135.06 219.998C134.674 219.127 134.261 218.201 133.818 217.255C134.644 216.697 135.437 216.089 136.19 215.434C137.413 216.291 140.222 216.978 140.585 217.082C140.423 218.004 140.261 218.899 140.091 219.744C140.002 220.191 139.913 220.612 139.825 221.032L141.098 220.755C141.148 220.492 141.194 220.234 141.241 219.96C141.41 219.022 141.568 218.031 141.723 216.985C142.109 216.985 145.195 216.935 146.526 216.322C147.722 215.762 149.088 214.721 149.381 213.355C149.46 213.036 149.472 212.704 149.414 212.38C149.357 212.057 149.232 211.749 149.048 211.477C148.864 211.205 148.625 210.974 148.346 210.801C148.067 210.627 147.754 210.514 147.429 210.469C145.465 210.253 143.119 212.942 142.413 214.555C142.371 214.651 142.028 215.735 141.819 216.422C141.877 215.998 141.943 215.589 141.997 215.153C142.116 214.292 142.209 213.432 142.313 212.502C142.348 212.055 142.383 211.6 142.417 211.14C142.452 210.681 142.452 210.203 142.471 209.728C142.471 208.625 142.471 207.51 142.402 206.387C143.173 206.488 145.839 206.812 147.109 206.441C148.378 206.071 149.886 205.245 150.38 203.941C150.508 203.638 150.57 203.312 150.563 202.984C150.556 202.655 150.479 202.332 150.339 202.035C150.198 201.738 149.997 201.473 149.747 201.26C149.498 201.046 149.206 200.887 148.891 200.793C146.962 200.28 144.261 202.583 143.297 204.069C143.239 204.161 142.672 205.303 142.371 205.936C142.332 205.261 142.294 204.589 142.232 203.907C142.051 201.939 141.808 199.952 141.576 197.969C141.503 197.36 141.437 196.754 141.372 196.148C141.638 196.187 144.821 196.642 146.244 196.225C147.51 195.839 149.018 195.029 149.516 193.725C149.643 193.422 149.704 193.096 149.697 192.767C149.689 192.439 149.612 192.115 149.471 191.818C149.331 191.521 149.129 191.257 148.879 191.044C148.63 190.83 148.338 190.671 148.023 190.577C146.094 190.064 143.393 192.371 142.433 193.853C142.359 193.964 141.545 195.612 141.36 196.04C141.214 194.701 141.078 193.37 141.001 192.051C140.886 190.27 140.886 188.484 141.001 186.704C141.125 186.723 144.443 187.213 145.901 186.785C147.166 186.399 148.679 185.593 149.173 184.285C149.299 183.982 149.361 183.656 149.354 183.327C149.346 182.999 149.27 182.676 149.129 182.379C148.989 182.082 148.788 181.818 148.539 181.604C148.289 181.39 147.998 181.231 147.683 181.137C145.754 180.627 143.054 182.931 142.089 184.416C142.016 184.532 141.14 186.299 141.005 186.634C141.005 186.53 141.005 186.422 141.005 186.318C141.171 184.536 141.495 182.772 141.974 181.048C142.224 180.091 142.521 179.192 142.826 178.324C143.436 178.478 146.225 179.154 147.579 178.914C148.933 178.675 150.469 178.031 151.105 176.789C151.264 176.501 151.361 176.184 151.389 175.857C151.418 175.529 151.377 175.2 151.27 174.89C151.162 174.579 150.991 174.295 150.766 174.055C150.542 173.815 150.27 173.625 149.967 173.498C148.123 172.776 145.164 174.771 144.049 176.14C143.991 176.214 143.459 177.039 143.077 177.645C143.224 177.259 143.362 176.85 143.509 176.488C144.053 175.095 144.636 173.853 145.16 172.753C145.465 172.132 145.751 171.596 146.024 171.059C146.7 170.901 149.42 170.222 150.492 169.4C151.565 168.579 152.649 167.286 152.641 165.89C152.65 165.561 152.59 165.234 152.465 164.93C152.339 164.627 152.151 164.353 151.913 164.126C151.674 163.9 151.391 163.726 151.081 163.617C150.771 163.507 150.442 163.464 150.114 163.49C148.146 163.702 146.437 166.831 146.082 168.563C146.051 168.71 145.835 171.106 145.87 171.098H145.909C145.635 171.592 145.349 172.12 145.045 172.707C144.497 173.795 143.887 175.022 143.308 176.414C142.677 177.891 142.132 179.403 141.676 180.944C141.153 182.679 140.787 184.459 140.581 186.26C140.579 186.282 140.579 186.304 140.581 186.326C140.465 185.758 140.095 184.181 140.052 184.061C139.458 182.398 137.332 179.535 135.353 179.597C135.026 179.618 134.706 179.706 134.416 179.858C134.125 180.01 133.869 180.221 133.665 180.478C133.461 180.734 133.313 181.031 133.231 181.349C133.149 181.666 133.135 181.997 133.189 182.321C133.374 183.702 134.655 184.848 135.805 185.5C137.101 186.229 140.315 186.511 140.569 186.534C140.404 188.372 140.362 190.219 140.442 192.062C140.484 193.135 140.558 194.215 140.646 195.299C140.535 194.809 140.426 194.373 140.407 194.316C139.813 192.653 137.683 189.79 135.708 189.852C135.38 189.871 135.06 189.959 134.769 190.11C134.477 190.262 134.221 190.473 134.016 190.73C133.811 190.987 133.663 191.284 133.581 191.602C133.499 191.92 133.485 192.252 133.54 192.576C133.725 193.961 135.006 195.106 136.156 195.755C137.305 196.403 140.056 196.711 140.785 196.781C140.824 197.194 140.855 197.61 140.897 198.023C141.086 200.014 141.283 201.997 141.422 203.953C141.472 204.64 141.491 205.319 141.518 205.998C141.414 205.566 141.325 205.203 141.306 205.149C140.712 203.482 138.605 200.62 136.607 200.681C136.279 200.701 135.959 200.79 135.667 200.941C135.376 201.093 135.119 201.304 134.915 201.562C134.71 201.819 134.562 202.116 134.48 202.435C134.398 202.753 134.384 203.085 134.439 203.409C134.624 204.794 135.909 205.94 137.055 206.588C138.2 207.236 140.689 207.514 141.549 207.599C141.549 208.293 141.549 208.991 141.549 209.667C141.518 210.13 141.522 210.573 141.468 211.036C141.414 211.499 141.379 211.947 141.337 212.394C141.217 213.258 141.105 214.146 140.951 214.983C140.862 215.566 140.766 216.121 140.67 216.681C140.631 215.994 140.523 214.651 140.504 214.543C140.146 213.029 139.406 211.631 138.355 210.485C138.324 210.314 138.277 210.147 138.212 209.987C138.103 209.677 137.93 209.394 137.704 209.155C137.478 208.917 137.204 208.728 136.9 208.603C136.597 208.477 136.27 208.417 135.942 208.426C135.613 208.435 135.291 208.514 134.994 208.656C133.235 209.559 132.764 213.096 133.065 214.829C133.065 214.929 133.393 216.025 133.598 216.711C133.416 216.326 133.243 215.94 133.05 215.554C132.664 214.782 132.278 214.011 131.85 213.17L131.187 211.978C130.97 211.592 130.697 211.175 130.45 210.77C129.859 209.84 129.215 208.926 128.548 208.023C129.234 207.691 131.634 206.48 132.506 205.469C133.378 204.458 134.161 202.942 133.856 201.58C133.793 201.258 133.663 200.953 133.475 200.685C133.287 200.416 133.044 200.19 132.763 200.021C132.482 199.852 132.169 199.744 131.844 199.703C131.518 199.663 131.188 199.691 130.874 199.786C128.999 200.415 128 203.841 128.019 205.604C128.019 205.716 128.177 206.981 128.274 207.676C127.888 207.136 127.467 206.592 127.039 206.056C125.805 204.512 124.504 202.992 123.216 201.468C122.83 201.002 122.444 200.531 122.058 200.064C122.301 199.948 125.207 198.571 126.163 197.437C127.016 196.43 127.818 194.91 127.514 193.548C127.453 193.225 127.324 192.918 127.137 192.648C126.949 192.378 126.707 192.15 126.425 191.98C126.144 191.81 125.83 191.702 125.503 191.661C125.177 191.621 124.846 191.65 124.531 191.746C122.656 192.371 121.657 195.797 121.676 197.564C121.676 197.695 121.908 199.516 121.985 199.975C121.129 198.945 120.28 197.907 119.489 196.85C118.412 195.428 117.427 193.939 116.541 192.39C116.653 192.336 119.69 190.913 120.67 189.752C121.522 188.745 122.328 187.225 122.02 185.863C121.959 185.54 121.83 185.234 121.643 184.964C121.456 184.694 121.214 184.467 120.933 184.297C120.652 184.127 120.338 184.018 120.012 183.977C119.686 183.937 119.356 183.965 119.041 184.061C117.163 184.686 116.163 188.112 116.183 189.879C116.183 190.018 116.433 191.978 116.503 192.329C116.453 192.236 116.387 192.151 116.337 192.059C115.494 190.48 114.792 188.83 114.238 187.128C113.922 186.194 113.671 185.28 113.467 184.385C114.061 184.181 116.758 183.204 117.757 182.255C118.756 181.306 119.686 179.941 119.524 178.54C119.499 178.212 119.405 177.893 119.249 177.604C119.093 177.315 118.877 177.062 118.617 176.862C118.356 176.662 118.056 176.519 117.736 176.442C117.417 176.366 117.084 176.358 116.761 176.418C114.832 176.835 113.459 180.13 113.289 181.889C113.289 181.985 113.289 182.965 113.312 183.683C113.216 183.278 113.112 182.861 113.027 182.471C112.71 181.009 112.51 179.651 112.344 178.448C112.255 177.761 112.19 177.14 112.132 176.557C112.606 176.052 114.497 173.984 114.94 172.699C115.384 171.414 115.573 169.744 114.798 168.586C114.624 168.307 114.393 168.068 114.121 167.884C113.848 167.699 113.54 167.574 113.217 167.517C112.893 167.459 112.561 167.471 112.241 167.55C111.922 167.629 111.623 167.775 111.364 167.977C109.844 169.238 110.145 172.796 110.801 174.435C110.855 174.578 111.997 176.692 112.02 176.665L112.051 176.634C112.093 177.198 112.147 177.792 112.217 178.455C112.359 179.663 112.529 181.029 112.815 182.506C113.109 184.099 113.495 185.673 113.972 187.221C114.493 188.956 115.169 190.641 115.99 192.255C115.99 192.255 116.013 192.294 116.021 192.313C115.635 191.9 114.435 190.789 114.335 190.716C112.919 189.655 109.566 188.44 107.953 189.586C107.69 189.783 107.471 190.033 107.311 190.32C107.151 190.608 107.053 190.926 107.025 191.254C106.996 191.581 107.037 191.911 107.144 192.222C107.252 192.533 107.424 192.818 107.649 193.058C108.497 194.115 110.199 194.362 111.514 194.281Z" fill="black"/>
<path opacity="0.1" d="M142.673 177.965C142.707 177.965 142.8 175.577 142.788 175.427C142.653 173.664 141.357 170.342 139.436 169.879C139.114 169.811 138.782 169.812 138.461 169.881C138.139 169.95 137.836 170.086 137.571 170.28C137.306 170.474 137.084 170.722 136.921 171.007C136.758 171.292 136.656 171.608 136.623 171.935C136.438 173.32 137.372 174.763 138.305 175.693C139.405 176.785 142.673 177.965 142.673 177.965Z" fill="black"/>
</g>
<g opacity="0.1">
<path opacity="0.1" d="M280.204 217.927C278.9 217.973 276.203 216.846 276.203 216.846C276.203 216.846 277.484 215.303 277.58 215.207C278.665 214.192 281.361 212.873 282.816 213.663C283.053 213.805 283.259 213.995 283.418 214.221C283.577 214.447 283.688 214.704 283.741 214.976C283.795 215.247 283.792 215.526 283.73 215.796C283.669 216.066 283.552 216.32 283.387 216.542C282.712 217.522 281.311 217.884 280.204 217.927Z" fill="black"/>
<path opacity="0.1" d="M276.171 225.434C274.952 225.153 272.803 223.505 272.63 223.363C271.681 224.596 270.65 225.764 269.543 226.858C268.907 227.502 268.247 228.127 267.576 228.748C267.923 228.509 268.236 228.301 268.286 228.278C269.601 227.583 272.549 227.024 273.737 228.189C273.929 228.388 274.077 228.625 274.171 228.885C274.266 229.145 274.304 229.422 274.284 229.698C274.265 229.973 274.187 230.242 274.057 230.486C273.927 230.73 273.747 230.944 273.529 231.113C272.626 231.866 271.179 231.843 270.099 231.592C269.019 231.341 267.136 229.96 266.65 229.589C266.388 229.825 266.133 230.064 265.878 230.296C264.628 231.422 263.374 232.537 262.175 233.671C261.754 234.057 261.353 234.478 260.952 234.883C261.26 234.674 261.523 234.497 261.565 234.474C262.881 233.783 265.832 233.224 267.02 234.389C267.212 234.588 267.36 234.824 267.454 235.084C267.548 235.344 267.587 235.62 267.567 235.896C267.548 236.171 267.47 236.439 267.34 236.683C267.21 236.927 267.03 237.14 266.812 237.309C265.909 238.081 264.462 238.042 263.378 237.792C262.294 237.541 260.6 236.291 260.018 235.863C259.632 236.291 259.219 236.723 258.861 237.155C258.614 237.456 258.359 237.73 258.131 238.05L257.437 238.968C257.02 239.566 256.584 240.184 256.191 240.778C255.913 241.191 255.658 241.588 255.396 241.989C255.813 241.584 256.642 240.832 256.719 240.758C257.915 239.875 260.743 238.876 262.097 239.844C262.317 240.012 262.499 240.225 262.631 240.467C262.763 240.71 262.843 240.978 262.865 241.254C262.888 241.53 262.852 241.807 262.76 242.068C262.668 242.329 262.523 242.567 262.333 242.768C261.561 243.648 260.118 243.849 259.011 243.76C257.796 243.667 255.504 242.417 255.219 242.259C254.79 242.923 254.381 243.571 254.007 244.188C253.729 244.643 253.463 245.087 253.212 245.512L252.248 245.126C252.537 244.655 252.846 244.169 253.17 243.656C253.602 242.981 254.077 242.271 254.57 241.542C253.958 240.968 253.381 240.357 252.842 239.713C251.712 240.261 249.285 240.485 248.984 240.485C248.984 241.256 249.011 242.028 249.042 242.761C249.042 243.147 249.073 243.509 249.088 243.868L248.07 243.482C248.07 243.255 248.07 243.035 248.07 242.799C248.07 241.997 248.07 241.14 248.07 240.265C247.753 240.211 245.176 239.759 244.165 239.073C243.247 238.448 242.236 237.398 242.19 236.225C242.166 235.95 242.2 235.672 242.291 235.411C242.382 235.149 242.526 234.91 242.716 234.708C242.905 234.507 243.135 234.347 243.39 234.24C243.645 234.133 243.92 234.081 244.196 234.088C245.855 234.173 247.445 236.719 247.83 238.154C247.854 238.239 247.996 239.184 248.077 239.786C248.077 239.424 248.077 239.076 248.097 238.706C248.097 237.977 248.151 237.248 248.185 236.464C248.22 236.079 248.251 235.693 248.282 235.307C248.313 234.921 248.378 234.535 248.428 234.127C248.556 233.208 248.733 232.286 248.93 231.36C248.29 231.36 246.017 231.256 245.01 230.778C244.003 230.299 242.865 229.416 242.626 228.262C242.561 227.994 242.554 227.715 242.604 227.443C242.655 227.171 242.761 226.913 242.918 226.685C243.074 226.458 243.277 226.265 243.512 226.121C243.748 225.977 244.011 225.883 244.285 225.847C245.94 225.677 247.896 227.954 248.494 229.319C248.533 229.404 248.853 230.431 249.015 230.994C249.138 230.438 249.258 229.883 249.401 229.327C249.813 227.714 250.28 226.098 250.739 224.481C250.882 223.984 251.013 223.49 251.152 222.996C250.925 222.996 248.22 222.946 247.094 222.41C246.09 221.931 244.945 221.044 244.709 219.894C244.643 219.626 244.635 219.346 244.685 219.074C244.735 218.802 244.841 218.543 244.998 218.315C245.155 218.087 245.358 217.895 245.594 217.751C245.83 217.607 246.094 217.514 246.368 217.479C248.023 217.309 249.979 219.586 250.577 220.951C250.62 221.052 251.079 222.529 251.175 222.907C251.476 221.819 251.766 220.728 252.005 219.643C252.339 218.18 252.578 216.697 252.719 215.203C252.611 215.203 249.79 215.164 248.637 214.613C247.634 214.138 246.488 213.251 246.249 212.101C246.183 211.832 246.176 211.553 246.226 211.281C246.276 211.008 246.382 210.75 246.539 210.522C246.695 210.294 246.898 210.101 247.134 209.956C247.37 209.812 247.633 209.718 247.908 209.682C249.567 209.512 251.519 211.792 252.117 213.154C252.167 213.262 252.657 214.852 252.726 215.145C252.726 215.056 252.749 214.968 252.757 214.883C252.857 213.379 252.822 211.87 252.653 210.373C252.572 209.547 252.448 208.76 252.31 207.996C251.785 208.042 249.378 208.231 248.282 207.853C247.186 207.475 245.998 206.735 245.635 205.616C245.541 205.356 245.503 205.079 245.523 204.803C245.543 204.527 245.621 204.258 245.752 204.015C245.882 203.771 246.063 203.557 246.281 203.388C246.5 203.218 246.752 203.097 247.02 203.031C248.644 202.68 250.84 204.728 251.584 206.017C251.623 206.086 251.97 206.843 252.19 207.398C252.124 207.055 252.059 206.7 251.989 206.372C251.723 205.141 251.403 204.03 251.114 203.05C250.944 202.495 250.778 201.993 250.62 201.507C250.08 201.283 247.919 200.35 247.148 199.532C246.376 198.714 245.635 197.487 245.828 196.329C245.864 196.055 245.957 195.791 246.101 195.555C246.246 195.319 246.438 195.116 246.667 194.959C246.895 194.802 247.154 194.696 247.426 194.646C247.698 194.596 247.978 194.605 248.247 194.671C249.852 195.11 250.855 197.938 250.925 199.424C250.925 199.555 250.79 201.569 250.763 201.557H250.728C250.89 202.005 251.06 202.483 251.233 203.012C251.546 203.988 251.889 205.095 252.182 206.322C252.516 207.643 252.774 208.983 252.954 210.334C253.156 211.846 253.225 213.374 253.158 214.898C253.156 214.916 253.156 214.934 253.158 214.952C253.328 214.493 253.849 213.231 253.899 213.139C254.613 211.839 256.762 209.74 258.398 210.052C258.667 210.113 258.922 210.229 259.144 210.394C259.365 210.558 259.55 210.768 259.686 211.009C259.822 211.25 259.905 211.516 259.931 211.792C259.957 212.067 259.925 212.344 259.837 212.606C259.497 213.733 258.293 214.535 257.24 214.921C256.063 215.357 253.355 215.16 253.143 215.145C253.01 216.692 252.776 218.228 252.441 219.744C252.263 220.631 252.055 221.518 251.839 222.406C251.997 222.02 252.144 221.669 252.171 221.634C252.888 220.33 255.037 218.235 256.669 218.548C256.939 218.607 257.194 218.723 257.416 218.888C257.638 219.053 257.824 219.262 257.959 219.503C258.095 219.744 258.179 220.011 258.204 220.287C258.23 220.562 258.197 220.84 258.108 221.102C257.769 222.225 256.565 223.008 255.512 223.393C254.459 223.779 252.144 223.667 251.53 223.625C251.445 223.964 251.361 224.308 251.272 224.644C250.847 226.272 250.419 227.896 250.045 229.501C249.914 230.068 249.802 230.627 249.694 231.191C249.837 230.843 249.956 230.554 249.979 230.512C250.697 229.208 252.846 227.113 254.482 227.425C254.751 227.485 255.006 227.602 255.228 227.766C255.45 227.931 255.634 228.141 255.77 228.382C255.906 228.622 255.989 228.889 256.015 229.164C256.041 229.44 256.009 229.717 255.921 229.979C255.581 231.102 254.378 231.885 253.32 232.271C252.263 232.657 250.18 232.552 249.462 232.51C249.366 233.089 249.269 233.667 249.2 234.235C249.165 234.62 249.104 235.006 249.084 235.392L249.015 236.549C248.996 237.282 248.972 238.035 248.972 238.748C248.972 239.246 248.972 239.721 248.972 240.195C249.096 239.632 249.358 238.532 249.397 238.444C249.892 237.234 250.689 236.171 251.712 235.357C251.761 235.223 251.823 235.094 251.897 234.971C252.029 234.729 252.211 234.517 252.431 234.35C252.651 234.182 252.903 234.063 253.172 233.999C253.441 233.936 253.72 233.929 253.992 233.98C254.263 234.031 254.521 234.139 254.748 234.296C256.09 235.284 256.009 238.285 255.519 239.698C255.492 239.779 255.091 240.65 254.829 241.194C255.033 240.897 255.215 240.608 255.438 240.303C255.855 239.705 256.287 239.115 256.754 238.482L257.464 237.579C257.695 237.275 257.977 236.978 258.236 236.673C258.853 235.982 259.509 235.307 260.184 234.643C259.655 234.277 257.811 232.95 257.236 231.997C256.661 231.044 256.195 229.682 256.634 228.583C256.729 228.324 256.876 228.089 257.066 227.891C257.257 227.693 257.487 227.538 257.741 227.434C257.995 227.331 258.269 227.281 258.543 227.29C258.818 227.298 259.087 227.364 259.335 227.483C260.809 228.255 261.183 231.233 260.932 232.699C260.932 232.788 260.616 233.822 260.442 234.381C260.851 233.995 261.256 233.59 261.685 233.204C262.919 232.086 264.2 230.994 265.473 229.902L266.631 228.887C266.442 228.76 264.212 227.228 263.567 226.16C262.992 225.211 262.53 223.845 262.965 222.749C263.06 222.491 263.207 222.256 263.397 222.058C263.588 221.86 263.817 221.704 264.072 221.6C264.326 221.496 264.599 221.447 264.874 221.455C265.148 221.462 265.418 221.528 265.666 221.646C267.14 222.417 267.514 225.396 267.263 226.862C267.263 226.974 266.812 228.455 266.685 228.826C267.537 228.085 268.378 227.333 269.177 226.561C270.281 225.516 271.315 224.398 272.271 223.216C272.182 223.154 269.852 221.569 269.185 220.473C268.61 219.52 268.143 218.158 268.579 217.059C268.674 216.799 268.822 216.562 269.014 216.363C269.206 216.164 269.438 216.008 269.694 215.904C269.951 215.8 270.226 215.752 270.502 215.761C270.779 215.771 271.05 215.838 271.299 215.959C272.773 216.731 273.147 219.709 272.896 221.175C272.877 221.291 272.41 222.884 272.306 223.166C272.36 223.1 272.421 223.035 272.475 222.965C273.388 221.767 274.192 220.49 274.879 219.15C275.265 218.413 275.597 217.687 275.901 216.978C275.435 216.727 273.324 215.554 272.622 214.636C271.92 213.718 271.334 212.441 271.646 211.31C271.71 211.041 271.831 210.788 272 210.569C272.168 210.35 272.382 210.168 272.625 210.037C272.869 209.905 273.137 209.827 273.413 209.806C273.689 209.786 273.967 209.824 274.227 209.917C275.77 210.523 276.476 213.44 276.388 214.933C276.388 215.014 276.241 215.828 276.133 216.418C276.264 216.098 276.407 215.766 276.519 215.454C276.974 214.296 277.321 213.177 277.622 212.198C277.788 211.642 277.927 211.133 278.05 210.654C277.722 210.168 276.426 208.201 276.229 207.082C276.033 205.963 276.098 204.539 276.897 203.683C277.078 203.474 277.301 203.306 277.552 203.189C277.803 203.072 278.075 203.009 278.352 203.004C278.628 203 278.903 203.053 279.157 203.161C279.412 203.27 279.641 203.43 279.829 203.633C280.928 204.887 280.215 207.799 279.443 209.073C279.378 209.184 278.147 210.789 278.131 210.766L278.108 210.735C278 211.198 277.873 211.688 277.722 212.225C277.479 213.185 277.14 214.312 276.708 215.5C276.255 216.785 275.726 218.042 275.126 219.265C274.462 220.638 273.675 221.949 272.776 223.181C272.766 223.196 272.754 223.211 272.742 223.224C273.128 222.938 274.266 222.171 274.358 222.12C275.674 221.43 278.625 220.866 279.813 222.032C280.005 222.231 280.153 222.468 280.248 222.728C280.342 222.988 280.381 223.264 280.361 223.54C280.341 223.816 280.264 224.085 280.134 224.328C280.003 224.572 279.823 224.786 279.605 224.956C278.702 225.708 277.252 225.689 276.171 225.434Z" fill="black"/>
<path opacity="0.1" d="M252.456 207.734C252.425 207.734 252.668 205.731 252.699 205.604C253.046 204.161 254.566 201.573 256.225 201.445C256.501 201.432 256.777 201.477 257.035 201.577C257.292 201.677 257.526 201.83 257.72 202.027C257.915 202.224 258.065 202.459 258.163 202.718C258.26 202.976 258.302 203.253 258.285 203.529C258.258 204.686 257.29 205.778 256.387 206.426C255.326 207.186 252.456 207.73 252.456 207.734Z" fill="black"/>
</g>
<path d="M179.737 108L184.56 153.829" stroke="#263238" stroke-linecap="round" stroke-linejoin="round"/>
<path d="M194.201 117.738L190.606 118.563L187.315 125.072L182.103 123.583L181.956 125.002L188.438 127.691L190.756 124.474V130.087L197.716 130.388L199.14 124.026L201.682 126.272V132.182H203.179L204.078 124.775L200.112 118.34L194.201 117.738Z" fill="white" stroke="#263238" stroke-linecap="round" stroke-linejoin="round"/>
<path d="M190.756 124.474L190.702 121.306" stroke="#263238" stroke-linecap="round" stroke-linejoin="round"/>
<path d="M194.147 119.821L195.124 121.653C195.124 121.653 197.824 122.51 198.303 122.63C198.781 122.749 200.259 122.263 201.478 122.02C202.697 121.777 206.613 123.729 206.613 123.729L210.035 123.853L208.202 121.653L201.601 120.674L198.179 121.777L195.864 121.164L196.358 120.207L195.259 118.494L194.147 119.821Z" fill="black" stroke="#263238" stroke-linecap="round" stroke-linejoin="round"/>
<path d="M194.499 117.213C194.3 117.175 194.094 117.217 193.926 117.33C193.758 117.443 193.641 117.617 193.6 117.815C193.453 118.563 193.303 120.434 193.303 120.434L195.097 119.91L197.195 120.809C197.195 120.809 197.867 118.86 197.493 118.189C197.118 117.518 195.398 116.615 194.499 117.213Z" fill="white" stroke="#263238" stroke-linecap="round" stroke-linejoin="round"/>
<path d="M194.124 116.167C194.124 116.167 194.348 118.262 194.425 119.011C194.502 119.759 194.95 120.882 195.247 120.658C195.544 120.434 196.593 118.343 196.593 118.343L197.118 116.924L194.124 116.167Z" fill="white" stroke="#263238" stroke-linecap="round" stroke-linejoin="round"/>
<path d="M194.148 113.108C194.148 113.108 193.492 113.05 193.492 114.123C193.492 115.195 193.967 115.253 193.967 115.253L194.148 113.108Z" fill="white" stroke="#263238" stroke-linecap="round" stroke-linejoin="round"/>
<path d="M198.534 114.003C198.619 114.008 198.702 114.031 198.777 114.071C198.852 114.111 198.918 114.167 198.969 114.235C199.02 114.303 199.055 114.381 199.073 114.465C199.09 114.548 199.09 114.634 199.07 114.717C198.951 115.373 197.82 116.26 197.82 116.26L198.534 114.003Z" fill="white" stroke="#263238" stroke-linecap="round" stroke-linejoin="round"/>
<path d="M196.369 110.947C196.369 110.947 195.173 110.647 194.498 112.07C193.823 113.494 193.973 115.214 194.112 116.187C194.251 117.159 195.162 117.606 196.061 117.606C196.96 117.606 198.302 115.739 198.603 114.316C198.904 112.892 198.688 110.947 196.369 110.947Z" fill="white" stroke="#263238" stroke-linecap="round" stroke-linejoin="round"/>
<path d="M180.655 122.753L180.952 124.998L182.299 125.149L182.075 122.603L180.655 122.753Z" fill="white" stroke="#263238" stroke-linecap="round" stroke-linejoin="round"/>
<path d="M182.103 122.718L182.647 122.645L182.755 123.841L182.211 123.914L182.103 122.718Z" fill="white" stroke="#263238" stroke-linecap="round" stroke-linejoin="round"/>
<path d="M201.682 132.182L200.864 133.463L201.076 134.748L201.79 134.678L203.005 134.25L203.179 132.182H201.682Z" fill="white" stroke="#263238" stroke-linecap="round" stroke-linejoin="round"/>
<path d="M190.756 130.087L190.228 132.394L184.371 140.103L188.299 151.171L189.298 150.955L188.441 140.388L193.225 135.319L193.796 135.678L193.812 141.333L199.294 150.6L200.436 150.311L197.866 141.387L198.009 131.893L197.716 130.388L190.756 130.087Z" fill="#263238" stroke="#263238" stroke-linecap="round" stroke-linejoin="round"/>
<path d="M188.299 151.171L187.442 152.383C187.442 152.383 186.084 153.027 185.872 153.382C185.66 153.737 187.029 153.668 187.029 153.668L188.6 153.525L190.243 152.456L189.313 150.955L188.299 151.171Z" fill="white" stroke="#263238" stroke-linecap="round" stroke-linejoin="round"/>
<path d="M179.942 109.632C179.942 109.632 179.224 111.268 176.261 112.39C173.298 113.513 169.008 114.127 167.886 116.476C166.763 118.826 166.763 118.625 166.559 119.948C166.449 120.722 166.09 121.439 165.536 121.989C165.536 121.989 166.559 122.093 167.079 121.38C167.6 120.666 167.797 118.621 168.623 118.313C169.448 118.004 170.949 117.506 170.949 117.506C170.949 117.506 169.521 118.733 169.406 119.346C169.29 119.96 169.201 121.391 168.997 122.309C168.908 122.811 168.663 123.273 168.298 123.629C168.298 123.629 169.626 123.629 170.035 122.711C170.444 121.792 170.035 120.566 171.362 119.644C172.689 118.721 174.12 119.134 176.377 119.235C178.634 119.335 180.771 118.012 180.771 118.012L179.942 109.632Z" fill="black" stroke="#263238" stroke-linecap="round" stroke-linejoin="round"/>
<path d="M199.294 150.6L198.311 153.868L200.753 153.772L200.436 150.311L199.294 150.6Z" fill="white" stroke="#263238" stroke-linecap="round" stroke-linejoin="round"/>
<path d="M195.552 113.814C195.509 114.007 195.374 114.142 195.243 114.115C195.112 114.088 195.042 113.907 195.085 113.729C195.127 113.552 195.262 113.401 195.393 113.428C195.525 113.455 195.59 113.621 195.552 113.814Z" fill="#263238"/>
<path d="M197.339 114.231C197.296 114.424 197.161 114.559 197.03 114.532C196.899 114.505 196.829 114.323 196.872 114.146C196.914 113.968 197.049 113.818 197.18 113.845C197.312 113.872 197.377 114.034 197.339 114.231Z" fill="#263238"/>
<path d="M196.149 114.061L195.675 115.492H196.45" stroke="#263238" stroke-linecap="round" stroke-linejoin="round"/>
<path d="M195.081 115.909C195.081 115.909 195.498 116.623 196.57 116.206" stroke="#263238" stroke-linecap="round" stroke-linejoin="round"/>
<path d="M195.02 112.811C195.175 112.727 195.354 112.699 195.527 112.731C195.701 112.764 195.858 112.854 195.972 112.988" stroke="#263238" stroke-linecap="round" stroke-linejoin="round"/>
<path d="M196.867 113.228C196.972 113.17 197.087 113.136 197.205 113.126C197.324 113.117 197.443 113.132 197.555 113.172C197.668 113.212 197.77 113.274 197.856 113.357C197.942 113.439 198.01 113.538 198.055 113.648" stroke="#263238" stroke-linecap="round" stroke-linejoin="round"/>
<path d="M193.889 112.633L198.175 112.105C198.175 112.105 197.997 112.819 198.237 112.996C198.476 113.174 198.534 114.011 198.534 114.011L198.356 114.964L199.309 113.297C199.309 113.297 199.606 111.985 199.367 111.569C199.289 111.443 199.185 111.335 199.062 111.253C198.939 111.17 198.799 111.115 198.653 111.09C198.398 110.704 198.039 110.399 197.616 110.21C197.194 110.02 196.727 109.955 196.269 110.022C194.602 110.199 193.889 111.032 193.889 111.688V112.633Z" fill="#263238" stroke="#263238" stroke-linecap="round" stroke-linejoin="round"/>
<path d="M190.725 274.605L198.286 231.214L169.745 205.022L180.103 169.728L169.015 169.975L164.332 174.165L154.544 173.926L153.221 178.698L150.535 178.363L149.61 180.037L145.03 189.181L142.65 198.312L133.776 209.404L132.804 235.577L118.498 256.225L114 274.605H190.725Z" fill="#808080" stroke="#39515E" stroke-linecap="round" stroke-linejoin="round"/>
<path d="M255.126 274.605L245.655 253.837L261.087 264.119V247.664L252.017 236.92L253.359 224.832L239.586 198.64L238.9 189.574L234.2 185.207L210.08 186.951L208.359 178.482L192.927 169.751L183.668 192.17L175.138 195.944L181.149 204.184L180.177 210.716L182.187 220.801L148.622 228.189C148.622 228.189 148.286 244.308 148.286 245.65C148.286 246.993 141.569 254.717 141.569 254.717L141.257 274.605H255.126Z" fill="#ABABAB" stroke="#39515E" stroke-linecap="round" stroke-linejoin="round"/>
<path d="M273.819 274.605L269.81 272.85L264.772 262.105L258.726 257.742L256.041 251.36L253.356 246.322L239.004 239.312L241.23 274.605H273.819Z" fill="#CCCCCC" stroke="#39515E" stroke-linecap="round" stroke-linejoin="round"/>
<path d="M123.603 274.562H141.546L141.87 264.119L140.192 258.077V241.958L136.164 241.287L132.804 244.979L127.434 248.004L115.794 274.605H123.603V274.562Z" fill="#CCCCCC" stroke="#39515E" stroke-linecap="round" stroke-linejoin="round"/>
<path d="M129.81 257.078L130.203 255.404" stroke="#39515E" stroke-miterlimit="10"/>
<path d="M123.603 274.605L125.995 265.157L128.251 263.721L129.571 258.096" stroke="#39515E" stroke-miterlimit="10"/>
<path d="M119.729 274.705L123.53 263.926" stroke="#39515E" stroke-miterlimit="10"/>
<path d="M136.219 245.747L135.849 247.498" stroke="#39515E" stroke-miterlimit="10"/>
<path d="M137.078 241.65L136.376 244.995" stroke="#39515E" stroke-miterlimit="10"/>
<path d="M141.546 274.563L141.87 264.119L140.192 258.077V241.958L136.835 263.448L133.811 264.455L132.804 270.5L132.179 274.563H141.546Z" fill="white" stroke="#39515E" stroke-linecap="round" stroke-linejoin="round"/>
<path d="M199.012 262.653C200.921 262.394 202.787 261.886 204.564 261.14C205.982 260.562 207.23 259.633 208.19 258.44C208.302 258.289 208.406 258.131 208.506 257.973L205.856 246.013L200.628 241.453L199.756 237.541L194.741 233.629L193.005 239.717L190.177 243.629L189.961 257.977L192.662 263.139C194.787 263.121 196.909 262.959 199.012 262.653V262.653Z" fill="white" stroke="#39515E" stroke-linecap="round" stroke-linejoin="round"/>
<path d="M199.012 262.653L198.479 258.185L200.05 253.953V251.445L199.733 247.525" stroke="#39515E" stroke-miterlimit="10"/>
<path d="M202.194 249.073L203.028 253.795L204.594 254.107L204.282 258.027L204.907 260.068" stroke="#39515E" stroke-miterlimit="10"/>
<path d="M201.615 245.801L201.893 247.375" stroke="#39515E" stroke-miterlimit="10"/>
<path d="M196.442 235.766L197.696 248.621" stroke="#39515E" stroke-miterlimit="10"/>
<path d="M181.126 262.333C184.733 262.881 188.377 263.152 192.025 263.143C192.758 263.143 193.476 263.123 194.182 263.096L194.105 259.061L192.801 257.325V244.933L194.977 242.757L194.757 233.633L192.149 238.417L188.676 241.457L186.5 247.761L183.028 251.893L182.156 256.241L178.028 259.713L176.381 261.468C177.937 261.8 179.519 262.088 181.126 262.333Z" fill="#CCCCCC" stroke="#39515E" stroke-linecap="round" stroke-linejoin="round"/>
<path d="M243.953 274.605L262.183 274.57L238.579 260.427L232.873 246.657L228.17 245.986L224.142 240.616L222.125 242.63L223.467 254.381L218.433 262.776V268.15L216.083 274.192L227.441 274.605H243.953Z" fill="white" stroke="#39515E" stroke-linecap="round" stroke-linejoin="round"/>
<path d="M234.811 274.582L233.95 269.779L235.304 266.943L234.934 261.399L236.045 262.51L243.561 274.582H234.811Z" fill="#CCCCCC" stroke="#39515E" stroke-linecap="round" stroke-linejoin="round"/>
<path d="M234.934 261.399L240.235 263.988L242.326 266.573L248.363 269.655L252.553 272.244L255.127 274.605L243.56 274.582L234.934 261.399Z" fill="white" stroke="#39515E" stroke-linecap="round" stroke-linejoin="round"/>
<path d="M218.433 262.776V268.15L215.902 274.497L225.49 274.62L223.468 263.112L227.5 259.42L222.125 242.63L223.468 254.381L218.433 262.776Z" fill="#CCCCCC" stroke="#39515E" stroke-linecap="round" stroke-linejoin="round"/>
<path d="M228.171 245.986L231.716 253.482L233.283 253.64L234.537 257.402" stroke="#39515E" stroke-miterlimit="10"/>
<path d="M230.551 268.664L231.091 270.415" stroke="#39515E" stroke-miterlimit="10"/>
<path d="M228.425 255.049L229.52 259.285L231.403 262.417L229.208 264.3L230.157 267.383" stroke="#39515E" stroke-miterlimit="10"/>
<path d="M183.63 168.914L175.759 177.522L175.489 161.742L183.325 152.228L183.63 168.914Z" fill="#CCCCCC" stroke="#39515E" stroke-linecap="round" stroke-linejoin="round"/>
<path d="M178.167 203.374L186.215 196.272C186.792 195.771 187.435 195.35 188.125 195.022C188.99 194.611 189.895 194.288 190.825 194.057C192.017 193.767 193.23 193.566 194.452 193.455C195.991 193.313 197.536 193.257 199.081 193.285C202.817 193.335 206.544 193.664 210.231 194.269C213.295 194.777 216.325 195.476 219.301 196.364C221.979 197.163 224.317 198.019 226.334 198.81C228.352 199.601 230.019 200.326 231.369 200.859L220.925 207.63C219.648 207.128 218.063 206.445 216.161 205.701C214.259 204.956 212.04 204.157 209.506 203.386C206.69 202.55 203.824 201.894 200.925 201.422C197.435 200.855 193.906 200.55 190.37 200.512C188.904 200.486 187.439 200.543 185.979 200.681C184.824 200.788 183.677 200.98 182.55 201.256C181.663 201.474 180.801 201.782 179.976 202.174C179.322 202.491 178.713 202.895 178.167 203.374V203.374Z" fill="#CCCCCC" stroke="#39515E" stroke-linecap="round" stroke-linejoin="round"/>
<path d="M203.793 261.453L194.711 264.925C195.504 264.63 196.265 264.253 196.979 263.799C197.612 263.395 198.182 262.9 198.669 262.329C199.129 261.788 199.485 261.167 199.718 260.496C199.959 259.782 200.071 259.031 200.05 258.278C200.044 256.964 199.64 255.682 198.893 254.601C197.934 253.33 196.71 252.283 195.305 251.534C193.281 250.429 191.154 249.524 188.955 248.833C186.331 247.95 183.168 247.078 179.445 246.171C174.374 244.99 169.409 243.396 164.599 241.403C160.255 239.623 156.177 237.252 152.481 234.358C149.086 231.706 146.29 228.367 144.275 224.559C142.232 220.512 141.174 216.04 141.188 211.507C141.169 209.666 141.298 207.826 141.574 206.005C141.838 204.255 142.251 202.531 142.809 200.851C143.358 199.205 144.051 197.611 144.881 196.086C145.716 194.561 146.683 193.111 147.77 191.754L154.024 183.911C151.718 186.78 149.943 190.038 148.785 193.532C148.189 195.308 147.747 197.132 147.465 198.984C147.18 200.912 147.05 202.86 147.08 204.809C147.077 209.615 148.207 214.354 150.378 218.64C152.515 222.677 155.478 226.218 159.074 229.034C162.732 231.978 167.08 234.435 171.914 236.492C177.003 238.608 182.257 240.303 187.624 241.561C191.578 242.525 194.908 243.455 197.681 244.393C200.01 245.133 202.26 246.1 204.398 247.282C206.127 248.289 207.365 249.354 208.183 250.527C208.98 251.669 209.412 253.027 209.421 254.42C209.447 255.217 209.33 256.013 209.074 256.769C208.828 257.475 208.454 258.129 207.971 258.698C207.455 259.298 206.853 259.818 206.185 260.242C205.432 260.728 204.63 261.134 203.793 261.453V261.453Z" fill="#CCCCCC" stroke="#39515E" stroke-linecap="round" stroke-linejoin="round"/>
<path d="M159.074 229.034C162.731 231.978 167.079 234.435 171.913 236.492C177.003 238.608 182.257 240.303 187.623 241.561C191.578 242.525 194.907 243.455 197.681 244.393C200.01 245.133 202.26 246.1 204.398 247.282C206.126 248.289 207.365 249.354 208.183 250.527C208.98 251.669 209.412 253.027 209.421 254.42C209.485 255.866 209.046 257.289 208.179 258.448C207.218 259.64 205.97 260.57 204.552 261.148C202.78 261.893 200.917 262.401 199.012 262.66C196.698 262.995 194.363 263.159 192.025 263.15C188.377 263.159 184.733 262.889 181.126 262.34C177.663 261.815 174.234 261.079 170.86 260.137C167.581 259.223 164.46 258.166 161.551 257.051C158.642 255.936 155.941 254.736 153.507 253.579L148.576 274.528H237.191C239.953 271.452 242.113 267.886 243.561 264.015C245.078 259.89 245.783 255.51 245.636 251.117C245.505 246.422 244.792 242.244 243.391 238.498C241.998 234.753 239.828 231.345 237.025 228.498C234.143 225.542 230.467 222.938 225.891 220.616C221.315 218.293 215.806 216.237 209.302 214.381C205.114 213.162 201.453 211.992 198.318 210.87C195.641 209.944 193.029 208.838 190.501 207.56C188.418 206.468 186.856 205.384 185.814 204.273C184.772 203.162 184.24 202.032 184.217 200.843C184.187 199.871 184.397 198.907 184.826 198.035C185.362 197.021 186.162 196.17 187.141 195.573C188.548 194.725 190.099 194.143 191.717 193.856C194.154 193.4 196.634 193.208 199.113 193.282C202.848 193.331 206.575 193.66 210.262 194.265C213.327 194.773 216.356 195.472 219.332 196.36C222.01 197.159 224.348 198.015 226.366 198.806C228.383 199.597 230.05 200.323 231.4 200.855L237.141 175.006C235.336 174.235 233.395 173.463 231.269 172.73C229.143 171.997 226.829 171.31 224.286 170.689C221.744 170.068 218.966 169.532 215.91 169.065C212.855 168.598 209.51 168.266 205.845 168.05L205.509 152.765L183.345 152.228L183.65 168.914C178.26 169.658 173 171.153 168.025 173.355C163.74 175.248 159.83 177.892 156.478 181.164C153.41 184.192 150.999 187.819 149.394 191.819C147.775 195.955 146.988 200.369 147.079 204.809C147.076 209.615 148.206 214.354 150.378 218.64C152.515 222.677 155.478 226.218 159.074 229.034V229.034Z" fill="white" stroke="#39515E" stroke-linecap="round" stroke-linejoin="round"/>
<path d="M148.576 274.528L153.507 253.567L147.191 257.518L143.171 274.528H148.576Z" fill="#CCCCCC" stroke="#39515E" stroke-linecap="round" stroke-linejoin="round"/>
<path d="M255.162 269.47C254.773 269.397 254.371 269.475 254.039 269.69L255.767 270.728C255.813 270.605 255.834 270.475 255.828 270.345C255.823 270.214 255.79 270.087 255.734 269.969C255.677 269.851 255.597 269.747 255.499 269.661C255.401 269.575 255.286 269.51 255.162 269.47V269.47Z" fill="#263238"/>
<path d="M255.648 255.812C255.648 255.812 255.879 254.84 255.887 254.778C255.964 254.049 255.683 252.591 254.93 252.255C254.804 252.203 254.668 252.179 254.531 252.183C254.394 252.187 254.26 252.22 254.137 252.28C254.014 252.34 253.905 252.425 253.817 252.53C253.729 252.634 253.664 252.756 253.626 252.888C253.445 253.44 253.719 254.099 254.031 254.551C254.402 255.083 255.648 255.809 255.648 255.812Z" fill="#263238"/>
<path d="M267.086 261.746C267.556 261.179 268.124 259.817 267.68 259.115C267.604 259.001 267.504 258.905 267.388 258.833C267.271 258.761 267.141 258.714 267.006 258.696C266.87 258.678 266.732 258.688 266.601 258.727C266.47 258.766 266.348 258.833 266.245 258.922C266.036 259.132 265.876 259.385 265.776 259.664C265.676 259.943 265.638 260.24 265.666 260.535C265.666 261.179 266.318 262.464 266.322 262.464C266.326 262.464 267.063 261.796 267.086 261.746Z" fill="#263238"/>
<path d="M251.192 267.109C251.737 267.457 252.333 267.717 252.959 267.88C252.908 268.166 252.858 268.451 252.797 268.725C252.797 268.795 252.762 268.864 252.746 268.937L253.109 269.153C253.132 269.042 253.155 268.926 253.182 268.814C253.271 268.363 253.344 267.903 253.402 267.44C254.021 267.669 254.672 267.799 255.331 267.826C255.629 267.818 255.922 267.745 256.189 267.612C256.455 267.479 256.689 267.288 256.874 267.055C256.948 266.939 256.997 266.809 257.018 266.673C257.039 266.538 257.03 266.399 256.994 266.267C256.958 266.134 256.894 266.011 256.807 265.905C256.72 265.799 256.611 265.712 256.489 265.65C255.744 265.299 254.455 266.036 253.95 266.572C253.919 266.607 253.603 267.032 253.433 267.271C253.468 266.989 253.503 266.711 253.53 266.426C253.603 265.608 253.653 264.775 253.703 263.945C253.703 263.694 253.738 263.44 253.757 263.173C253.865 263.212 255.131 263.636 255.748 263.559C256.292 263.501 256.975 263.278 257.291 262.788C257.365 262.672 257.414 262.543 257.435 262.407C257.455 262.272 257.447 262.133 257.411 262.001C257.374 261.869 257.31 261.746 257.223 261.641C257.136 261.535 257.028 261.448 256.905 261.387C256.161 261.036 254.872 261.773 254.367 262.309C254.332 262.352 253.873 262.965 253.765 263.123C253.803 262.568 253.85 262.012 253.915 261.464C253.998 260.728 254.127 259.997 254.301 259.277C254.351 259.277 255.675 259.744 256.303 259.663C256.851 259.605 257.53 259.381 257.847 258.891C257.921 258.776 257.97 258.646 257.99 258.511C258.011 258.375 258.003 258.237 257.966 258.105C257.93 257.973 257.866 257.85 257.779 257.744C257.692 257.638 257.583 257.552 257.461 257.491C256.716 257.136 255.428 257.876 254.926 258.413C254.884 258.455 254.394 259.115 254.313 259.238C254.313 259.196 254.332 259.153 254.344 259.111C254.546 258.395 254.81 257.698 255.134 257.028C255.308 256.642 255.497 256.306 255.686 255.974C255.925 256.082 257.017 256.569 257.588 256.572C258.159 256.576 258.838 256.43 259.193 255.967C259.28 255.861 259.343 255.738 259.38 255.606C259.416 255.474 259.424 255.335 259.403 255.2C259.382 255.065 259.333 254.935 259.259 254.82C259.185 254.705 259.088 254.607 258.973 254.532C258.275 254.099 256.913 254.694 256.354 255.172C256.323 255.199 256.041 255.496 255.84 255.716C255.929 255.565 256.018 255.411 256.107 255.268C256.435 254.74 256.766 254.277 257.063 253.864C257.233 253.633 257.391 253.428 257.542 253.235C258.208 253.222 258.867 253.106 259.498 252.892C259.984 252.641 260.54 252.186 260.655 251.615C260.681 251.482 260.679 251.346 260.65 251.214C260.62 251.082 260.563 250.958 260.483 250.849C260.403 250.74 260.301 250.649 260.184 250.582C260.067 250.514 259.937 250.472 259.803 250.457C258.981 250.4 258.047 251.553 257.769 252.232C257.746 252.294 257.476 253.254 257.492 253.254H257.511C257.361 253.436 257.202 253.64 257.036 253.849C256.728 254.254 256.384 254.713 256.045 255.238C255.675 255.8 255.336 256.382 255.03 256.981C254.685 257.653 254.401 258.354 254.182 259.076C254.182 259.076 254.182 259.096 254.182 259.103C254.182 258.86 254.147 258.189 254.139 258.135C254.02 257.41 253.367 256.079 252.55 255.955C252.414 255.939 252.276 255.951 252.145 255.992C252.015 256.032 251.894 256.099 251.791 256.189C251.687 256.279 251.604 256.389 251.546 256.513C251.488 256.637 251.457 256.771 251.454 256.908C251.427 257.491 251.867 258.065 252.287 258.409C252.766 258.795 254.058 259.18 254.162 259.18C253.957 259.92 253.801 260.673 253.695 261.434C253.63 261.877 253.58 262.325 253.537 262.776C253.537 262.568 253.514 262.39 253.51 262.356C253.391 261.63 252.739 260.295 251.921 260.176C251.785 260.159 251.647 260.171 251.516 260.211C251.386 260.251 251.265 260.318 251.162 260.408C251.059 260.498 250.976 260.609 250.918 260.733C250.861 260.857 250.831 260.992 250.829 261.129C250.802 261.707 251.242 262.286 251.662 262.626C252.225 262.974 252.838 263.234 253.479 263.397C253.479 263.567 253.445 263.741 253.433 263.914C253.36 264.744 253.294 265.569 253.202 266.38C253.171 266.665 253.128 266.947 253.086 267.224C253.086 267.039 253.086 266.885 253.086 266.862C252.966 266.136 252.314 264.805 251.496 264.682C251.361 264.665 251.223 264.677 251.092 264.717C250.961 264.757 250.84 264.824 250.737 264.914C250.634 265.004 250.551 265.115 250.494 265.239C250.437 265.363 250.406 265.498 250.405 265.635C250.331 266.19 250.771 266.758 251.192 267.109Z" fill="#263238"/>
<path d="M272.738 260.272C272.086 259.767 270.67 260.214 270.065 260.631C270.011 260.666 269.255 261.322 269.27 261.329C269.046 261.395 268.807 261.472 268.545 261.561C268.066 261.731 267.526 261.924 266.955 262.174C266.334 262.435 265.73 262.734 265.146 263.069C264.488 263.439 263.864 263.866 263.282 264.346L263.263 264.366C263.39 264.161 263.738 263.594 263.757 263.536C264.058 262.865 264.247 261.391 263.633 260.836C263.529 260.747 263.408 260.681 263.277 260.642C263.146 260.604 263.008 260.593 262.873 260.612C262.737 260.63 262.607 260.676 262.491 260.748C262.375 260.82 262.275 260.915 262.198 261.028C261.855 261.495 261.909 262.209 262.063 262.738C262.245 263.332 263.124 264.343 263.197 264.424C262.616 264.924 262.07 265.466 261.565 266.044C261.265 266.38 260.975 266.723 260.69 267.074C260.798 266.897 260.89 266.735 260.902 266.711C261.203 266.04 261.392 264.566 260.778 264.011C260.675 263.922 260.553 263.856 260.422 263.818C260.291 263.779 260.153 263.768 260.018 263.787C259.882 263.805 259.752 263.851 259.636 263.923C259.52 263.995 259.42 264.091 259.343 264.204C259 264.67 259.054 265.388 259.212 265.913C259.49 266.512 259.858 267.065 260.304 267.552L259.98 267.938C259.463 268.594 258.95 269.246 258.437 269.867C258.255 270.087 258.051 270.299 257.877 270.508L258.059 270.191C258.359 269.524 258.549 268.05 257.935 267.491C257.831 267.402 257.71 267.336 257.579 267.298C257.448 267.259 257.31 267.248 257.174 267.267C257.039 267.285 256.909 267.331 256.793 267.403C256.677 267.475 256.577 267.571 256.5 267.684C256.157 268.15 256.211 268.864 256.369 269.393C256.626 270 256.981 270.562 257.418 271.056L257.032 271.472L257.372 271.677C257.607 271.434 257.835 271.179 258.062 270.905C258.455 271.432 258.926 271.895 259.459 272.279C259.712 272.433 259.996 272.53 260.29 272.564C260.585 272.597 260.883 272.566 261.164 272.471C261.29 272.417 261.402 272.337 261.495 272.236C261.587 272.136 261.657 272.017 261.701 271.887C261.744 271.758 261.759 271.62 261.746 271.484C261.733 271.348 261.691 271.217 261.623 271.098C261.195 270.392 259.694 270.299 259 270.469C258.954 270.469 258.456 270.658 258.182 270.762C258.363 270.546 258.549 270.334 258.726 270.11C259.239 269.47 259.741 268.802 260.242 268.139L260.705 267.537C260.775 267.626 261.6 268.694 262.148 268.964C262.401 269.118 262.684 269.215 262.977 269.248C263.271 269.282 263.569 269.251 263.849 269.157C263.975 269.103 264.087 269.023 264.18 268.922C264.272 268.822 264.342 268.703 264.386 268.573C264.429 268.444 264.445 268.306 264.431 268.17C264.418 268.034 264.376 267.903 264.309 267.784C263.884 267.078 262.403 266.981 261.685 267.151C261.631 267.151 260.913 267.425 260.736 267.498C261.076 267.055 261.419 266.619 261.778 266.198C262.255 265.629 262.771 265.093 263.321 264.593C263.352 264.636 264.204 265.751 264.768 266.032C265.254 266.287 265.944 266.476 266.469 266.225C266.595 266.171 266.708 266.092 266.801 265.991C266.893 265.891 266.964 265.772 267.008 265.642C267.051 265.512 267.067 265.375 267.054 265.239C267.041 265.103 266.999 264.971 266.932 264.852C266.504 264.146 265.022 264.053 264.309 264.219C264.251 264.219 263.479 264.512 263.34 264.574L263.437 264.481C264 263.995 264.606 263.56 265.246 263.181C265.597 262.965 265.944 262.795 266.288 262.61C266.427 262.83 267.059 263.837 267.545 264.153C268.032 264.47 268.668 264.721 269.216 264.539C269.347 264.499 269.467 264.432 269.57 264.342C269.673 264.252 269.756 264.141 269.813 264.017C269.871 263.893 269.902 263.758 269.904 263.622C269.906 263.485 269.879 263.349 269.825 263.224C269.478 262.475 268.016 262.221 267.287 262.309C267.244 262.309 266.847 262.41 266.558 262.483C266.716 262.406 266.874 262.325 267.025 262.255C267.592 261.993 268.124 261.789 268.599 261.611L269.347 261.353C269.909 261.707 270.522 261.973 271.164 262.143C271.456 262.196 271.755 262.185 272.042 262.109C272.329 262.034 272.595 261.897 272.823 261.707C272.918 261.611 272.992 261.495 273.04 261.369C273.087 261.242 273.108 261.106 273.1 260.971C273.092 260.836 273.055 260.704 272.993 260.583C272.931 260.463 272.844 260.357 272.738 260.272Z" fill="#263238"/>
<path d="M253.066 274.589L253.51 274.863L253.784 274.663L253.888 274.586L253.066 274.589Z" fill="#263238"/>
<path d="M125.247 249.065C125.132 249.139 125.035 249.237 124.96 249.351C124.886 249.466 124.836 249.595 124.815 249.73C124.793 249.865 124.8 250.003 124.836 250.135C124.871 250.267 124.933 250.39 125.019 250.496C125.295 250.815 125.681 251.019 126.099 251.067L126.929 249.173C126.346 248.91 125.675 248.787 125.247 249.065Z" fill="#263238"/>
<path d="M129.085 246.576C128.824 246.771 128.639 247.051 128.561 247.367L130.015 246.553C129.872 246.475 129.71 246.435 129.547 246.439C129.384 246.444 129.224 246.491 129.085 246.576V246.576Z" fill="#263238"/>
<path d="M129.332 232.788C129.826 233.204 131.218 233.582 131.218 233.582C131.218 233.582 131.191 232.587 131.18 232.525C131.064 231.8 130.408 230.465 129.602 230.338C129.466 230.32 129.328 230.331 129.197 230.37C129.066 230.409 128.944 230.476 128.841 230.566C128.737 230.656 128.654 230.766 128.596 230.891C128.538 231.015 128.508 231.15 128.506 231.287C128.491 231.866 128.946 232.433 129.332 232.788Z" fill="#263238"/>
<path d="M119.174 237.163C119.174 237.163 118.599 236.349 118.556 236.302C118.063 235.762 116.782 235.006 116.033 235.349C115.911 235.41 115.803 235.496 115.716 235.602C115.628 235.707 115.565 235.83 115.528 235.962C115.492 236.093 115.484 236.231 115.504 236.367C115.525 236.502 115.574 236.631 115.648 236.746C115.941 237.248 116.616 237.479 117.164 237.545C117.8 237.618 119.174 237.167 119.174 237.163Z" fill="#263238"/>
<path d="M118.448 234.084C118.487 234.315 118.529 234.562 118.579 234.832C118.679 235.33 118.795 235.89 118.965 236.491C119.137 237.147 119.348 237.791 119.598 238.42C119.873 239.123 120.21 239.799 120.605 240.442V240.465C120.423 240.311 119.895 239.886 119.833 239.859C119.212 239.474 117.777 239.088 117.132 239.605C117.03 239.696 116.949 239.808 116.893 239.933C116.837 240.058 116.808 240.193 116.808 240.33C116.808 240.467 116.837 240.602 116.893 240.727C116.949 240.852 117.03 240.964 117.132 241.055C117.549 241.46 118.263 241.507 118.807 241.441C119.42 241.349 120.543 240.612 120.632 240.554C121.052 241.197 121.514 241.813 122.013 242.398C122.302 242.737 122.603 243.073 122.912 243.405L122.58 243.143C121.959 242.757 120.524 242.371 119.879 242.892C119.778 242.983 119.696 243.095 119.641 243.22C119.585 243.345 119.556 243.48 119.556 243.617C119.556 243.754 119.585 243.889 119.641 244.014C119.696 244.139 119.778 244.251 119.879 244.342C120.115 244.522 120.387 244.647 120.676 244.711C120.965 244.774 121.265 244.773 121.554 244.709C122.186 244.516 122.786 244.229 123.332 243.856C123.452 243.98 123.568 244.107 123.687 244.242C124.262 244.844 124.845 245.442 125.385 246.048C125.578 246.26 125.771 246.476 125.944 246.692L125.655 246.468C125.034 246.082 123.598 245.697 122.954 246.214C122.853 246.305 122.771 246.417 122.716 246.542C122.66 246.667 122.631 246.802 122.631 246.939C122.631 247.076 122.66 247.211 122.716 247.336C122.771 247.461 122.853 247.573 122.954 247.664C123.371 248.069 124.088 248.116 124.629 248.05C125.245 247.866 125.829 247.587 126.361 247.224C126.542 247.448 126.723 247.676 126.889 247.907C126.997 248.065 127.113 248.208 127.213 248.374V248.397L127.36 248.065L127.445 248.015L127.194 247.676C126.916 247.309 126.619 246.95 126.311 246.599C126.883 246.283 127.403 245.881 127.854 245.407C128.042 245.178 128.177 244.91 128.251 244.623C128.325 244.336 128.336 244.036 128.282 243.744C128.246 243.613 128.182 243.49 128.095 243.385C128.008 243.28 127.9 243.194 127.778 243.133C127.655 243.072 127.522 243.038 127.385 243.032C127.249 243.027 127.113 243.05 126.986 243.1C126.214 243.424 125.929 244.879 125.998 245.608C125.998 245.654 126.11 246.175 126.176 246.46C125.987 246.248 125.79 246.036 125.609 245.828C125.041 245.23 124.451 244.643 123.865 244.053L123.332 243.513C123.429 243.455 124.586 242.788 124.945 242.282C125.157 242.057 125.315 241.786 125.406 241.491C125.498 241.195 125.521 240.883 125.473 240.577C125.437 240.445 125.373 240.323 125.286 240.217C125.2 240.112 125.092 240.026 124.969 239.965C124.847 239.904 124.714 239.869 124.577 239.863C124.441 239.857 124.304 239.879 124.177 239.929C123.406 240.253 123.12 241.707 123.19 242.44C123.19 242.494 123.348 243.243 123.398 243.432C123.012 243.046 122.626 242.629 122.24 242.221C121.745 241.668 121.286 241.082 120.867 240.469C120.913 240.442 122.125 239.748 122.491 239.234C122.679 239.006 122.815 238.739 122.889 238.452C122.963 238.166 122.973 237.866 122.919 237.575C122.885 237.442 122.822 237.316 122.736 237.209C122.649 237.101 122.54 237.012 122.417 236.95C122.294 236.887 122.159 236.851 122.02 236.845C121.882 236.838 121.744 236.861 121.615 236.912C120.844 237.236 120.558 238.69 120.628 239.423C120.628 239.481 120.801 240.284 120.84 240.427L120.763 240.322C120.36 239.695 120.013 239.034 119.725 238.347C119.563 237.961 119.428 237.599 119.304 237.236C119.924 236.983 120.501 236.636 121.014 236.206C121.224 235.999 121.387 235.748 121.491 235.472C121.595 235.195 121.638 234.899 121.615 234.605C121.592 234.471 121.541 234.344 121.465 234.231C121.389 234.118 121.291 234.022 121.176 233.95C121.062 233.877 120.933 233.829 120.799 233.809C120.664 233.789 120.527 233.797 120.396 233.833C119.625 234.072 119.154 235.484 119.139 236.221C119.139 236.26 119.177 236.669 119.208 236.966C119.158 236.8 119.1 236.63 119.05 236.472C118.869 235.878 118.741 235.315 118.633 234.825C118.571 234.543 118.521 234.288 118.479 234.053C118.909 233.545 119.258 232.974 119.513 232.359C119.607 232.079 119.638 231.781 119.604 231.487C119.57 231.193 119.471 230.91 119.316 230.658C119.235 230.548 119.131 230.456 119.012 230.389C118.893 230.322 118.761 230.281 118.625 230.268C118.489 230.255 118.351 230.271 118.222 230.315C118.092 230.359 117.973 230.43 117.873 230.523C117.283 231.098 117.526 232.56 117.873 233.224C117.896 233.247 118.44 234.096 118.448 234.084Z" fill="#263238"/>
<path d="M128.634 236.943C129.197 237.201 130.539 237.209 130.647 237.213C130.639 237.987 130.683 238.76 130.779 239.528C130.833 239.971 130.902 240.419 130.975 240.863C130.91 240.666 130.852 240.477 130.84 240.477C130.539 239.805 129.56 238.691 128.742 238.783C128.606 238.802 128.476 238.85 128.36 238.922C128.244 238.995 128.145 239.091 128.069 239.205C127.992 239.318 127.94 239.446 127.917 239.581C127.893 239.716 127.898 239.854 127.931 239.987C128.055 240.554 128.626 240.986 129.127 241.218C129.76 241.408 130.419 241.499 131.08 241.488C131.11 241.657 131.137 241.827 131.168 241.997C131.315 242.819 131.465 243.633 131.589 244.439C131.631 244.724 131.662 245.006 131.697 245.288L131.581 244.941C131.276 244.269 130.296 243.154 129.479 243.247C129.345 243.266 129.217 243.313 129.102 243.385C128.987 243.457 128.889 243.551 128.813 243.663C128.737 243.775 128.686 243.901 128.661 244.034C128.637 244.167 128.641 244.304 128.672 244.435C128.796 245.002 129.367 245.434 129.864 245.666C130.289 245.815 130.734 245.897 131.184 245.909L132.083 245.403L132.793 245.018L134.733 242.892C134.689 242.875 134.644 242.863 134.598 242.853C133.788 242.707 132.735 243.752 132.387 244.397C132.387 244.439 132.171 244.933 132.067 245.203C132.029 244.925 131.99 244.647 131.94 244.366C131.801 243.555 131.631 242.741 131.469 241.924C131.415 241.677 131.369 241.426 131.323 241.175C131.435 241.175 132.769 241.264 133.344 241.044C133.857 240.847 134.459 240.454 134.617 239.886C134.657 239.756 134.669 239.62 134.653 239.484C134.637 239.349 134.592 239.219 134.522 239.103C134.452 238.986 134.359 238.885 134.248 238.807C134.136 238.729 134.01 238.674 133.877 238.648C133.066 238.501 132.017 239.547 131.67 240.191C131.643 240.241 131.361 240.963 131.284 241.136C131.18 240.585 131.08 240.037 131.002 239.493C130.893 238.758 130.833 238.017 130.821 237.275C130.875 237.275 132.268 237.367 132.858 237.143C133.142 237.055 133.403 236.905 133.623 236.705C133.843 236.506 134.016 236.26 134.131 235.986C134.174 235.856 134.188 235.719 134.174 235.583C134.16 235.447 134.117 235.315 134.049 235.197C133.98 235.079 133.888 234.976 133.777 234.896C133.666 234.816 133.54 234.76 133.406 234.732C132.596 234.582 131.543 235.631 131.195 236.275C131.168 236.326 130.867 237.089 130.81 237.232C130.81 237.19 130.81 237.143 130.81 237.101C130.821 236.357 130.896 235.614 131.033 234.883C131.107 234.478 131.199 234.111 131.296 233.725C131.554 233.768 132.735 233.953 133.286 233.806C133.838 233.66 134.444 233.343 134.679 232.807C134.735 232.682 134.765 232.547 134.765 232.411C134.766 232.274 134.738 232.139 134.683 232.014C134.628 231.889 134.547 231.777 134.446 231.685C134.345 231.593 134.226 231.523 134.097 231.48C133.325 231.245 132.168 232.17 131.732 232.776C131.708 232.807 131.516 233.162 131.377 233.432C131.423 233.266 131.469 233.093 131.516 232.934C131.697 232.34 131.901 231.804 132.075 231.329C132.183 231.063 132.283 230.824 132.376 230.6C132.654 230.508 133.757 230.137 134.174 229.759C134.59 229.381 134.999 228.806 134.945 228.216C134.938 228.079 134.902 227.946 134.839 227.824C134.777 227.702 134.69 227.595 134.583 227.509C134.476 227.423 134.353 227.361 134.221 227.325C134.088 227.29 133.95 227.284 133.815 227.305C133.005 227.46 132.403 228.818 132.31 229.547C132.31 229.613 132.31 230.612 132.31 230.608C132.214 230.824 132.114 231.052 132.006 231.306C131.816 231.777 131.62 232.309 131.411 232.903C131.198 233.542 131.022 234.193 130.883 234.852C130.737 235.594 130.657 236.348 130.644 237.105V237.132C130.578 236.9 130.37 236.256 130.35 236.21C130.046 235.538 129.066 234.424 128.248 234.516C128.112 234.535 127.983 234.583 127.867 234.655C127.751 234.728 127.652 234.824 127.576 234.938C127.5 235.051 127.448 235.18 127.425 235.314C127.402 235.449 127.408 235.587 127.441 235.72C127.565 236.279 128.136 236.719 128.634 236.943Z" fill="#263238"/>
<path d="M184.587 245.5C184.451 245.519 184.321 245.566 184.206 245.639C184.09 245.712 183.991 245.808 183.914 245.922C183.838 246.035 183.787 246.164 183.764 246.298C183.741 246.433 183.746 246.571 183.78 246.704C183.877 246.984 184.034 247.239 184.24 247.452C184.446 247.664 184.696 247.829 184.972 247.934C185.352 248.071 185.75 248.149 186.153 248.166L186.496 247.757L186.689 247.197C186.385 246.522 185.405 245.407 184.587 245.5Z" fill="#263238"/>
<path d="M180.354 251.329C180.24 251.404 180.142 251.501 180.068 251.616C179.993 251.731 179.944 251.86 179.922 251.994C179.901 252.129 179.908 252.267 179.943 252.399C179.978 252.531 180.041 252.654 180.127 252.761C180.474 253.228 181.176 253.378 181.724 253.378C182.082 253.352 182.435 253.271 182.769 253.139L182.993 252.012L182.97 251.989C182.414 251.507 181.056 250.905 180.354 251.329Z" fill="#263238"/>
<path d="M184.193 248.86C183.564 249.246 183.441 250.488 183.552 251.252L185.4 249.057C185.255 248.887 185.054 248.774 184.833 248.738C184.612 248.702 184.385 248.745 184.193 248.86V248.86Z" fill="#263238"/>
<path d="M178.496 246.102C178.615 246.225 178.731 246.353 178.851 246.488C179.426 247.089 180.008 247.687 180.548 248.293C180.741 248.505 180.934 248.721 181.108 248.937L180.818 248.714C180.197 248.328 178.762 247.942 178.118 248.459C178.016 248.551 177.935 248.662 177.879 248.787C177.824 248.912 177.795 249.048 177.795 249.184C177.795 249.321 177.824 249.456 177.879 249.581C177.935 249.706 178.016 249.818 178.118 249.91C178.534 250.315 179.252 250.361 179.792 250.295C180.409 250.111 180.993 249.833 181.524 249.47C181.706 249.697 181.887 249.921 182.053 250.153C182.161 250.311 182.277 250.454 182.377 250.62L182.682 251.098C182.821 251.337 182.963 251.576 183.098 251.812L183.396 251.461C183.28 251.268 183.16 251.075 183.033 250.87L182.717 250.396C182.616 250.238 182.489 250.079 182.373 249.921C182.095 249.535 181.798 249.196 181.49 248.845C182.062 248.528 182.582 248.126 183.033 247.653C183.221 247.423 183.356 247.156 183.43 246.869C183.504 246.581 183.515 246.282 183.461 245.99C183.427 245.859 183.366 245.737 183.281 245.631C183.197 245.525 183.092 245.438 182.972 245.375C182.852 245.312 182.721 245.275 182.586 245.266C182.451 245.257 182.315 245.276 182.188 245.322C181.416 245.647 181.131 247.101 181.2 247.83C181.2 247.877 181.312 248.397 181.378 248.683C181.189 248.471 180.992 248.258 180.811 248.054C180.244 247.456 179.653 246.866 179.067 246.275L178.534 245.735C178.631 245.677 179.788 245.01 180.147 244.505C180.335 244.276 180.471 244.009 180.545 243.723C180.619 243.436 180.629 243.137 180.575 242.846C180.539 242.714 180.475 242.591 180.388 242.486C180.301 242.381 180.193 242.295 180.071 242.233C179.949 242.172 179.815 242.138 179.679 242.131C179.542 242.125 179.406 242.148 179.279 242.197C178.507 242.522 178.222 243.976 178.291 244.709C178.291 244.763 178.45 245.512 178.5 245.701C178.114 245.315 177.728 244.898 177.342 244.489C176.846 243.936 176.388 243.351 175.969 242.738C176.015 242.711 177.227 242.016 177.593 241.503C177.781 241.274 177.916 241.007 177.99 240.721C178.064 240.434 178.075 240.135 178.021 239.844C177.985 239.712 177.921 239.59 177.834 239.484C177.747 239.379 177.639 239.293 177.517 239.232C177.395 239.171 177.261 239.136 177.125 239.13C176.988 239.124 176.852 239.146 176.725 239.196C175.953 239.52 175.668 240.974 175.737 241.708C175.737 241.765 175.911 242.568 175.95 242.711L175.872 242.606C175.47 241.98 175.122 241.319 174.835 240.631C174.673 240.245 174.538 239.883 174.414 239.52C175.033 239.267 175.609 238.921 176.123 238.494C176.49 238.081 176.841 237.46 176.729 236.889C176.705 236.755 176.654 236.628 176.578 236.515C176.503 236.402 176.404 236.306 176.29 236.234C176.175 236.161 176.046 236.113 175.912 236.093C175.778 236.073 175.641 236.081 175.51 236.117C174.738 236.356 174.267 237.772 174.252 238.505C174.252 238.544 174.291 238.953 174.321 239.25C174.271 239.084 174.213 238.914 174.163 238.756C173.982 238.162 173.855 237.599 173.747 237.109C173.685 236.827 173.635 236.572 173.592 236.337C174.022 235.829 174.371 235.258 174.626 234.643C174.72 234.363 174.751 234.065 174.717 233.771C174.683 233.477 174.585 233.194 174.429 232.942C174.348 232.832 174.245 232.74 174.125 232.673C174.006 232.606 173.874 232.565 173.738 232.552C173.602 232.539 173.465 232.555 173.335 232.599C173.206 232.643 173.087 232.714 172.987 232.807C172.396 233.382 172.639 234.848 172.987 235.508C173.017 235.566 173.561 236.403 173.569 236.391C173.608 236.623 173.65 236.87 173.7 237.14C173.801 237.637 173.916 238.197 174.086 238.799C174.258 239.454 174.469 240.098 174.719 240.728C174.995 241.431 175.332 242.108 175.726 242.753C175.727 242.759 175.727 242.766 175.726 242.772C175.544 242.618 175.016 242.194 174.973 242.167C174.352 241.781 172.917 241.395 172.273 241.916C172.171 242.007 172.09 242.119 172.035 242.243C171.979 242.368 171.95 242.503 171.95 242.639C171.95 242.776 171.979 242.911 172.035 243.035C172.09 243.16 172.171 243.271 172.273 243.363C172.69 243.772 173.403 243.814 173.947 243.748C174.561 243.656 175.683 242.919 175.772 242.861C176.193 243.505 176.654 244.121 177.153 244.705C177.443 245.045 177.744 245.38 178.052 245.712L177.72 245.45C177.099 245.064 175.664 244.678 175.02 245.199C174.918 245.29 174.836 245.402 174.78 245.527C174.724 245.652 174.695 245.787 174.695 245.924C174.695 246.061 174.724 246.197 174.78 246.322C174.836 246.447 174.918 246.558 175.02 246.65C175.433 247.055 176.15 247.101 176.69 247.016C177.336 246.807 177.945 246.499 178.496 246.102V246.102Z" fill="#263238"/>
<path d="M184.456 235.072C184.95 235.488 186.343 235.866 186.343 235.866C186.343 235.866 186.316 234.871 186.304 234.809C186.188 234.084 185.532 232.749 184.726 232.622C184.59 232.604 184.453 232.616 184.322 232.655C184.191 232.695 184.069 232.762 183.966 232.851C183.863 232.941 183.779 233.051 183.721 233.175C183.664 233.299 183.633 233.434 183.63 233.571C183.6 234.15 184.036 234.717 184.456 235.072Z" fill="#263238"/>
<path d="M174.281 239.451C174.281 239.451 173.706 238.633 173.664 238.586C173.17 238.046 171.889 237.29 171.141 237.633C171.018 237.694 170.91 237.78 170.823 237.886C170.736 237.991 170.672 238.114 170.636 238.245C170.599 238.377 170.591 238.515 170.612 238.65C170.632 238.786 170.681 238.915 170.755 239.03C171.048 239.532 171.723 239.763 172.271 239.829C172.927 239.902 174.281 239.451 174.281 239.451Z" fill="#263238"/>
<path d="M183.73 239.227C184.293 239.485 185.636 239.497 185.744 239.497C185.736 240.264 185.78 241.031 185.875 241.792C185.929 242.236 185.998 242.684 186.072 243.131C186.006 242.93 185.948 242.745 185.937 242.745C185.636 242.074 184.656 240.959 183.838 241.052C183.702 241.071 183.573 241.118 183.457 241.191C183.341 241.263 183.241 241.36 183.165 241.473C183.088 241.587 183.037 241.715 183.013 241.85C182.99 241.984 182.994 242.123 183.028 242.255C183.151 242.822 183.722 243.255 184.224 243.486C184.857 243.676 185.515 243.767 186.176 243.756C186.207 243.926 186.234 244.096 186.265 244.265C186.411 245.087 186.562 245.905 186.685 246.707C186.685 246.827 186.712 246.947 186.728 247.066L186.971 246.372C186.839 245.654 186.693 244.933 186.55 244.211C186.5 243.964 186.45 243.714 186.403 243.467C186.93 243.498 187.457 243.487 187.981 243.432L188.66 241.468L189.197 241.001C189.126 240.967 189.051 240.942 188.973 240.928C188.163 240.782 187.113 241.827 186.766 242.471C186.739 242.521 186.458 243.243 186.38 243.417C186.276 242.865 186.176 242.317 186.099 241.773C185.99 241.038 185.929 240.297 185.917 239.555C185.971 239.555 187.364 239.647 187.954 239.423C188.238 239.335 188.499 239.185 188.719 238.986C188.939 238.786 189.112 238.54 189.228 238.266C189.27 238.136 189.285 237.999 189.27 237.863C189.256 237.727 189.213 237.595 189.145 237.477C189.077 237.359 188.984 237.256 188.873 237.176C188.762 237.096 188.636 237.04 188.502 237.012C187.692 236.862 186.639 237.911 186.292 238.555C186.265 238.606 185.964 239.369 185.906 239.512C185.906 239.47 185.906 239.427 185.906 239.381C185.917 238.637 185.992 237.894 186.13 237.163C186.203 236.777 186.295 236.391 186.392 236.005C186.65 236.048 187.831 236.233 188.383 236.086C188.934 235.94 189.54 235.623 189.775 235.087C189.831 234.962 189.861 234.828 189.861 234.691C189.862 234.554 189.834 234.419 189.779 234.294C189.724 234.169 189.644 234.057 189.543 233.965C189.442 233.873 189.323 233.803 189.193 233.76C188.421 233.525 187.264 234.45 186.828 235.056C186.805 235.087 186.612 235.442 186.473 235.712C186.519 235.546 186.566 235.373 186.612 235.214C186.793 234.62 186.998 234.084 187.171 233.609C187.279 233.343 187.38 233.104 187.472 232.88C187.75 232.788 188.853 232.417 189.27 232.039C189.687 231.661 190.096 231.086 190.042 230.496C190.034 230.359 189.998 230.226 189.936 230.104C189.873 229.982 189.786 229.875 189.679 229.789C189.573 229.703 189.449 229.641 189.317 229.606C189.185 229.57 189.046 229.564 188.911 229.586C188.101 229.74 187.499 231.098 187.41 231.827C187.41 231.893 187.391 232.892 187.41 232.888C187.314 233.104 187.214 233.332 187.11 233.586C186.917 234.057 186.704 234.589 186.512 235.184C186.298 235.822 186.122 236.473 185.983 237.132C185.826 237.871 185.734 238.622 185.709 239.377V239.42C185.643 239.188 185.435 238.544 185.416 238.498C185.111 237.826 184.131 236.711 183.313 236.804C183.178 236.823 183.048 236.87 182.932 236.943C182.816 237.016 182.717 237.112 182.641 237.226C182.565 237.339 182.514 237.467 182.491 237.602C182.467 237.737 182.473 237.875 182.507 238.008C182.673 238.563 183.244 238.995 183.73 239.227Z" fill="#263238"/>
<path d="M242.235 205.531L240.695 203.621L242.08 202.529L243.01 203.69L242.694 204.427L242.956 205.014L242.412 205.403" fill="white"/>
<path d="M242.235 205.531L240.695 203.621L242.08 202.529L243.01 203.69L242.694 204.427L242.956 205.014L242.412 205.403" stroke="#263238" stroke-linecap="round" stroke-linejoin="round"/>
<path d="M254.718 208.845C254.718 208.845 253.665 207.903 253.271 207.965C252.878 208.027 247.716 208.891 247.716 208.891L242.967 205.014L242.241 205.531L246.786 211.233L251.724 210.924L250.663 216.326L246.169 219.744L253.499 224.123L254.977 219.462L260.814 213.714L258.545 210.87L254.718 208.845Z" fill="black" stroke="#263238" stroke-linecap="round" stroke-linejoin="round"/>
<path d="M256.223 207.599L255.393 209.342L255.088 209.065L254.506 213.305L258.549 210.855L258.144 210.214L258.237 208.891L256.223 207.599Z" fill="white" stroke="#263238" stroke-linecap="round" stroke-linejoin="round"/>
<path d="M254.506 213.305L256.871 211.869L254.896 210.481L254.506 213.305Z" fill="white" stroke="#263238" stroke-linecap="round" stroke-linejoin="round"/>
<path d="M260.892 203.444C260.892 203.444 262.678 201.353 264.495 202.672C266.312 203.992 265.811 205.28 267.107 204.574C268.403 203.868 270.838 202.074 272.304 204.358C273.77 206.642 272.639 209.034 271.717 209.582C270.795 210.13 271.038 209.084 271.057 208.579C271.077 208.073 269.564 207.421 269.229 208.463C268.893 209.505 267.13 211.11 264.892 210.959C262.655 210.809 262.223 208.058 262.273 206.441C262.269 205.956 262.14 205.48 261.897 205.06C261.654 204.64 261.307 204.29 260.888 204.046L260.892 203.444Z" fill="#263238" stroke="#263238" stroke-linecap="round" stroke-linejoin="round"/>
<path d="M256.609 203.011C256.609 203.011 255.49 205.504 255.722 206.974C255.953 208.443 255.83 209.574 256.578 209.859C257.327 210.145 259.808 208.644 260.355 207.653C260.903 206.661 261.686 205.23 261.47 203.856C261.254 202.483 258.623 200.484 256.609 203.011Z" fill="white" stroke="#263238" stroke-linecap="round" stroke-linejoin="round"/>
<path d="M257.034 205.627C256.976 205.82 256.852 205.951 256.756 205.92C256.659 205.889 256.629 205.712 256.686 205.535C256.744 205.357 256.868 205.21 256.964 205.241C257.061 205.272 257.076 205.434 257.034 205.627Z" fill="#263238"/>
<path d="M258.816 206.368C258.758 206.561 258.631 206.696 258.534 206.665C258.438 206.634 258.407 206.457 258.465 206.279C258.523 206.102 258.65 205.955 258.746 205.982C258.843 206.009 258.874 206.175 258.816 206.368Z" fill="#263238"/>
<path d="M257.485 205.947C257.485 205.947 257.6 206.032 257.438 206.333C257.276 206.634 256.887 206.526 256.929 206.785C256.971 207.043 257.461 207.17 257.461 207.17" stroke="#263238" stroke-linecap="round" stroke-linejoin="round"/>
<path d="M256.586 207.618C256.586 207.618 257.207 208.204 257.763 208.062" stroke="#263238" stroke-linecap="round" stroke-linejoin="round"/>
<path d="M259.403 205.751L258.249 205.458" stroke="#263238" stroke-linecap="round" stroke-linejoin="round"/>
<path d="M257.338 205.022L256.786 204.528" stroke="#263238" stroke-linecap="round" stroke-linejoin="round"/>
<path d="M256.609 203.011C256.609 203.011 256.443 203.397 256.25 203.926C256.902 203.586 258.025 203.204 259.051 203.837C260.077 204.47 260.594 205.924 260.802 206.815C261.238 205.932 261.628 204.886 261.47 203.856C261.254 202.483 258.623 200.484 256.609 203.011Z" fill="#263238" stroke="#263238" stroke-linecap="round" stroke-linejoin="round"/>
<path d="M260.536 206.777C260.536 206.777 261.338 206.04 261.308 206.711C261.277 207.383 260.355 207.78 260.15 207.811C259.946 207.842 259.961 207.583 259.961 207.583" fill="white"/>
<path d="M260.536 206.777C260.536 206.777 261.338 206.04 261.308 206.711C261.277 207.383 260.355 207.78 260.15 207.811C259.946 207.842 259.961 207.583 259.961 207.583" stroke="#263238" stroke-linecap="round" stroke-linejoin="round"/>
<path d="M260.811 213.717L259.576 222.518C259.549 222.705 259.457 222.877 259.316 223.003C259.175 223.129 258.994 223.202 258.804 223.208H258.538C258.333 223.216 258.132 223.145 257.978 223.009C257.824 222.873 257.727 222.684 257.709 222.479L257.227 217.186L260.811 213.717Z" fill="black" stroke="#263238" stroke-linecap="round" stroke-linejoin="round"/>
<path d="M258.577 221.31L254.615 217.815L253.728 218.559L257.532 222.961C257.615 223.051 257.717 223.121 257.832 223.165C257.946 223.209 258.069 223.227 258.191 223.216H258.504C258.624 223.211 258.741 223.179 258.847 223.123C258.953 223.068 259.045 222.989 259.117 222.893C259.188 222.796 259.238 222.686 259.261 222.568C259.285 222.45 259.282 222.329 259.252 222.213V222.213" fill="black"/>
<path d="M258.577 221.31L254.615 217.815L253.728 218.559L257.532 222.961C257.615 223.051 257.717 223.121 257.832 223.165C257.946 223.209 258.069 223.227 258.191 223.216H258.504C258.624 223.211 258.741 223.179 258.847 223.123C258.953 223.068 259.045 222.989 259.117 222.893C259.188 222.796 259.238 222.686 259.261 222.568C259.285 222.45 259.282 222.329 259.252 222.213V222.213" stroke="#263238" stroke-linecap="round" stroke-linejoin="round"/>
<path d="M254.615 217.811L253.685 216.326L251.594 216.094L251.605 217.34L252.608 218.177L253.245 218.266L253.727 218.556L254.615 217.811Z" fill="white" stroke="#263238" stroke-linecap="round" stroke-linejoin="round"/>
<path d="M243.418 222.444C243.418 222.444 239.051 228.127 239.29 229.069C239.529 230.01 245.91 239.975 245.91 239.975L246.797 239.389L243.291 228.44L250.339 225.635L243.418 222.444Z" fill="white" stroke="#263238" stroke-linecap="round" stroke-linejoin="round"/>
<path d="M246.938 224.551L247.454 226.823L249.789 225.928L246.938 224.551Z" fill="#263238" stroke="#263238" stroke-miterlimit="10"/>
<path d="M245.911 239.956L244.753 241.885C244.753 241.885 243.831 243.266 244.101 243.351C244.692 243.54 246.219 242.537 246.655 242.228C247.091 241.92 247.558 241.715 247.847 241.511C248.137 241.306 248.716 241.187 247.925 240.454C247.658 240.211 246.813 239.37 246.813 239.37L245.911 239.956Z" fill="white" stroke="#263238" stroke-linecap="round" stroke-linejoin="round"/>
<path d="M253.121 220.631C251.155 219.847 249.144 219.181 247.098 218.636C243.56 217.676 240.945 216.931 240.995 217.815C241.045 218.698 247.48 232.93 247.48 232.93L248.584 232.579L246.901 224.732C246.901 224.732 249.602 226.623 251.597 225.685C253.591 224.748 254.351 222.213 254.212 221.349" fill="#263238"/>
<path d="M253.121 220.631C251.155 219.847 249.144 219.181 247.098 218.636C243.56 217.676 240.945 216.931 240.995 217.815C241.045 218.698 247.48 232.93 247.48 232.93L248.584 232.579L246.901 224.732C246.901 224.732 249.602 226.623 251.597 225.685C253.591 224.748 254.351 222.213 254.212 221.349" stroke="#263238" stroke-linecap="round" stroke-linejoin="round"/>
<path d="M246.346 218.432C243.198 217.579 240.945 216.993 240.995 217.815C241.045 218.698 247.48 232.931 247.48 232.931L248.584 232.579L246.902 224.732C247.476 223.332 246.867 220.388 246.346 218.432Z" fill="white" stroke="#263238" stroke-linecap="round" stroke-linejoin="round"/>
<path d="M246.902 224.732L244.128 220.708" stroke="#263238" stroke-linecap="round" stroke-linejoin="round"/>
<path d="M247.481 232.931L246.447 234.879C246.447 234.879 244.36 236.9 244.823 237.005C245.286 237.109 249.209 235.423 249.503 235.022C249.796 234.62 248.584 232.579 248.584 232.579L247.481 232.931Z" fill="white" stroke="#263238" stroke-linecap="round" stroke-linejoin="round"/>
<path d="M242.682 204.589L252.412 216.175" stroke="#263238" stroke-miterlimit="10"/>
<path d="M212.743 168.71L241.296 202.877" stroke="#263238" stroke-miterlimit="10"/>
<path d="M253.245 218.262V274.589" stroke="#263238" stroke-miterlimit="10"/>
<path d="M160.324 202.61C160.324 202.61 162.376 214.62 160.146 218.428C157.916 222.236 152.322 219.497 152.322 219.497V274.204" stroke="#263238" stroke-miterlimit="10"/>
<path d="M148.001 207.105C148.001 207.105 149.818 206.896 149.957 207.317C150.033 207.661 150.033 208.018 149.957 208.363C149.957 208.363 151.002 209.481 151.002 210.249C151.002 211.017 149.887 211.368 149.887 211.368L149.679 213.181L146.886 213.32L146.534 211.156C146.534 211.156 145.485 207.035 148.001 207.105Z" fill="white" stroke="#263238" stroke-linecap="round" stroke-linejoin="round"/>
<path d="M148.561 210.099L147.789 208.98C148.048 208.559 148.192 208.077 148.206 207.583C148.206 206.812 148.136 205.419 146.531 205.419C144.926 205.419 143.877 206.677 143.53 209.4C143.183 212.124 144.784 213.451 147.091 212.961C149.398 212.471 148.561 210.099 148.561 210.099Z" fill="#263238" stroke="#263238" stroke-linecap="round" stroke-linejoin="round"/>
<path d="M148.491 209.62C148.491 209.62 147.303 209.481 147.372 210.392C147.39 210.588 147.468 210.773 147.594 210.924C147.72 211.075 147.888 211.184 148.078 211.237C148.267 211.29 148.468 211.285 148.654 211.221C148.84 211.158 149.002 211.04 149.12 210.882" fill="white"/>
<path d="M148.491 209.62C148.491 209.62 147.303 209.481 147.372 210.392C147.39 210.588 147.468 210.773 147.594 210.924C147.72 211.075 147.888 211.184 148.078 211.237C148.267 211.29 148.468 211.285 148.654 211.221C148.84 211.158 149.002 211.04 149.12 210.882" stroke="#263238" stroke-linecap="round" stroke-linejoin="round"/>
<path d="M146.836 214.003L144.263 214.728C144.263 214.728 144.062 215.23 143.761 215.886C143.356 216.777 142.241 218.586 142.241 218.586L137.091 220.056L135.436 225.392L135.069 227.599L138.009 226.125L138.194 220.978L142.824 220.265L144.811 215.249L146.836 214.003Z" fill="#263238" stroke="#263238" stroke-linecap="round" stroke-linejoin="round"/>
<path d="M150.937 213.251C150.937 213.251 148.912 212.344 147.376 212.552C145.841 212.761 145.98 213.532 145.98 213.532L146.049 214.578C146.049 214.578 148.623 213.81 150.937 213.251Z" fill="black" stroke="#263238" stroke-linecap="round" stroke-linejoin="round"/>
<path d="M144.02 218.351L145.466 225.041C145.477 225.121 145.507 225.198 145.554 225.264C145.6 225.33 145.662 225.384 145.734 225.422C145.805 225.46 145.885 225.48 145.966 225.481C146.047 225.482 146.127 225.463 146.199 225.427L149.467 223.795L144.02 218.351Z" fill="black" stroke="#263238" stroke-linecap="round" stroke-linejoin="round"/>
<path d="M147.654 221.912L146.887 223.447" stroke="#263238" stroke-linecap="round" stroke-linejoin="round"/>
<path d="M154.425 228.687L158.642 235.662L158.082 245.095L160.108 245.025L162.133 233.775L159.174 225.893L154.425 228.687Z" fill="#263238" stroke="#263238" stroke-linecap="round" stroke-linejoin="round"/>
<path d="M146.045 214.578C146.045 214.578 144.02 218.069 144.02 218.351C144.02 218.633 151.913 226.241 151.913 226.241L157.92 222.259L154.147 215.701L159.579 210.369L159.996 203.174L159.02 203.104L157.272 208.343L151.485 212.904L146.045 214.578Z" fill="black" stroke="#263238" stroke-linecap="round" stroke-linejoin="round"/>
<path d="M159.02 203.104L159.089 201.499L160.833 200.172L160.976 200.519V201.569L161.045 202.406L159.996 203.174L159.02 203.104Z" fill="white" stroke="#263238" stroke-linecap="round" stroke-linejoin="round"/>
<path d="M151.913 226.241C151.913 226.241 153.24 228.474 154.228 229.173C155.216 229.871 158.267 227.707 159.039 227.074C159.81 226.441 162.743 222.676 162.743 222.676L165.466 234.281L167.145 233.582C167.145 233.582 166.161 218.15 165.675 217.718C165.189 217.286 157.642 222.186 157.642 222.186L151.913 226.241Z" fill="#263238" stroke="#263238" stroke-linecap="round" stroke-linejoin="round"/>
<path d="M167.141 233.586H169.514C169.934 233.586 170.98 232.958 171.057 233.448C171.134 233.938 169.032 235.261 168.191 235.681C167.383 235.995 166.539 236.206 165.679 236.31L165.467 234.285L167.141 233.586Z" fill="white" stroke="#263238" stroke-linecap="round" stroke-linejoin="round"/>
<path d="M160.108 245.025L161.297 247.19C161.297 247.19 162.763 247.819 162.763 248.1C162.763 248.382 160.39 248.239 160.178 248.239C159.966 248.239 157.597 245.924 157.597 245.924L158.083 245.083L160.108 245.025Z" fill="white" stroke="#263238" stroke-linecap="round" stroke-linejoin="round"/>
<path d="M160.833 200.172L183.63 168.914" stroke="#263238" stroke-miterlimit="10"/>
<path d="M103.869 274.605H286.739" stroke="#263238" stroke-linecap="round" stroke-linejoin="round"/>
</svg>
